<?xml version="1.0" standalone="no"?>
<!DOCTYPE svg PUBLIC "-//W3C//DTD SVG 20010904//EN"
 "http://www.w3.org/TR/2001/REC-SVG-20010904/DTD/svg10.dtd">
<svg version="1.0" xmlns="http://www.w3.org/2000/svg"
 width="302.000000pt" height="97.000000pt" viewBox="0 0 302.000000 97.000000"
 preserveAspectRatio="xMidYMid meet">
<metadata>
Created by potrace 1.16, written by Peter Selinger 2001-2019
</metadata>
<g transform="translate(0.000000,97.000000) scale(0.100000,-0.100000)"
fill="#000000" stroke="none">
<path d="M1475 573 c-110 -191 -212 -368 -228 -395 l-27 -48 92 0 93 1 30 52
30 52 215 0 214 0 31 -52 30 -53 93 0 93 0 -25 43 c-14 23 -117 201 -228 394
-112 194 -205 353 -208 353 -3 0 -95 -156 -205 -347z m265 -69 c30 -53 57
-100 58 -105 2 -5 -48 -9 -117 -9 -67 0 -121 2 -121 5 0 10 114 205 120 205 3
0 30 -43 60 -96z"/>
<path d="M140 742 l0 -129 -41 -57 -41 -57 41 -54 41 -54 0 -131 0 -131 83 3
82 3 3 122 3 121 -33 7 c-85 19 -170 94 -150 132 24 44 94 92 155 107 l28 7
-3 117 -3 117 -82 3 -83 3 0 -129z"/>
<path d="M460 500 l0 -370 370 0 370 0 0 80 0 80 -290 0 -290 0 0 290 0 290
-80 0 -80 0 0 -370z"/>
<path d="M2160 500 l0 -371 303 3 c284 3 304 4 342 24 24 12 49 37 62 60 28
50 39 147 23 210 -15 60 -15 82 1 163 15 77 2 165 -32 212 -46 64 -70 69 -401
69 l-298 0 0 -370z m570 191 c18 -35 12 -79 -14 -96 -19 -13 -55 -15 -212 -13
l-189 3 -3 63 -3 62 205 0 c193 0 206 -1 216 -19z m0 -290 c15 -29 12 -77 -6
-95 -13 -14 -47 -16 -215 -16 l-199 0 0 65 0 65 205 0 c192 0 205 -1 215 -19z"/>
<path d="M208 541 c-30 -26 -31 -31 -20 -55 40 -89 261 -62 238 29 -9 35 -54
55 -125 55 -53 0 -65 -4 -93 -29z"/>
</g>
</svg>
